<?xml version="1.0" encoding="utf-8"?>
<!-- Generator: Adobe Illustrator 18.1.1, SVG Export Plug-In . SVG Version: 6.00 Build 0)  -->
<svg version="1.1" id="Layer_1" xmlns="http://www.w3.org/2000/svg" xmlns:xlink="http://www.w3.org/1999/xlink" x="0px" y="0px"
	 viewBox="0 0 100 100" enable-background="new 0 0 100 100" xml:space="preserve">
<g>
	<circle fill="none" stroke="#000000" stroke-miterlimit="10" stroke-dasharray="11.7175,11.7175" cx="50" cy="50" r="48.5">
			<animateTransform attributeName="transform" attributeType="xml" type="rotate" from="0 50 50" to="360 50 50" dur="10s" repeatCount="indefinite" />
</circle>

</g>
<circle fill="#FF0000" cx="50" cy="50" r="39.5"/>
<path fill="#FFFFFF" d="M31.5,63L31.5,63C29,63,27,61,27,58.5v-18c0-2.5,2-4.5,4.5-4.5h0c2.5,0,4.5,2,4.5,4.5v18
	C36,61,34,63,31.5,63z"/>
<path fill="#FFFFFF" d="M67.5,63L67.5,63C65,63,63,61,63,58.5v-18c0-2.5,2-4.5,4.5-4.5h0c2.5,0,4.5,2,4.5,4.5v18
	C72,61,70,63,67.5,63z"/>
<path fill="#FFFFFF" d="M49.5,63L49.5,63C47,63,45,61,45,58.5v-18c0-2.5,2-4.5,4.5-4.5h0c2.5,0,4.5,2,4.5,4.5v18
	C54,61,52,63,49.5,63z"/>
</svg>
